<svg xmlns="http://www.w3.org/2000/svg" fill="none" viewBox="0 0 585 560"><g opacity=".7"><path fill="url(#a)" d="M137.771 369.89c26.986 4.502 51.416 5.565 77.406 26.302 53.879 42.99 42.96 120.353 129.7 155.151 74.157 29.751 139.233-23.706 162.068-61.705 44.516-74.075 77.697-182.165 77.697-296.984 0-110.414-36.366-166.172-109.075-187.137-72.709-20.965-219.892 19.733-344.536 89.647C31.613 150.928-18.38 209.167 6.189 286.007c18.951 59.269 83.36 75.837 131.582 83.883Z"/><path fill="#fff" fill-opacity=".2" d="M137.771 369.89c26.986 4.502 51.416 5.565 77.406 26.302 53.879 42.99 42.96 120.353 129.7 155.151 74.157 29.751 139.233-23.706 162.068-61.705 44.516-74.075 77.697-182.165 77.697-296.984 0-110.414-36.366-166.172-109.075-187.137-72.709-20.965-219.892 19.733-344.536 89.647C31.613 150.928-18.38 209.167 6.189 286.007c18.951 59.269 83.36 75.837 131.582 83.883Z"/></g><defs><linearGradient id="a" x1="523.224" x2="213.613" y1="41.929" y2="458.294" gradientUnits="userSpaceOnUse"><stop stop-color="#6CC8F1"/><stop offset=".297" stop-color="#78A6FF"/><stop offset=".438" stop-color="#7E96FF"/><stop offset=".599" stop-color="#888BFF"/><stop offset=".698" stop-color="#978CFF"/><stop offset="1" stop-color="#B97BFF"/></linearGradient></defs></svg>
