<svg xmlns="http://www.w3.org/2000/svg" fill="none" viewBox="0 0 91 17"><path fill="#DCDEE6" d="M79.97 16.43V.33h2.3v14.1h8.718v2H79.97ZM66.656 7.276h8.28v1.955h-8.28V7.276Zm.206 7.153h9.385v2.001H64.563V.33h11.361v2.001h-9.062V14.43ZM53.172 16.43 46.088.33h2.484l6.509 14.858h-1.426L60.21.33h2.3l-7.061 16.1h-2.277ZM30.096 16.43l7.29-16.1h2.278l7.314 16.1h-2.415l-6.51-14.812h.92L32.466 16.43h-2.37Zm3.105-4.025.62-1.84h9.063l.667 1.84H33.2ZM15.822 16.43V.33h6.28c1.41 0 2.614.222 3.61.667.997.445 1.764 1.089 2.3 1.932.537.843.805 1.848.805 3.013 0 1.165-.268 2.17-.805 3.013-.536.828-1.303 1.464-2.3 1.91-.996.444-2.2.666-3.61.666h-5.015l1.035-1.058v5.957h-2.3Zm10.764 0-4.094-5.842h2.461l4.14 5.842h-2.507Zm-8.464-5.727-1.035-1.127h4.945c1.472 0 2.584-.314 3.335-.943.767-.644 1.15-1.54 1.15-2.69s-.383-2.04-1.15-2.669c-.751-.629-1.863-.943-3.335-.943h-4.945l1.035-1.15v9.522ZM5.52 16.43V2.331H0v-2h13.317v2h-5.52v14.1H5.52Z"/></svg>