<svg xmlns="http://www.w3.org/2000/svg" fill="none" viewBox="0 0 136 40"><path fill="url(#a)" d="M8.012 25.118c1.57.282 2.99.348 4.502 1.644 3.133 2.687 2.498 7.522 7.542 9.697 4.313 1.86 8.098-1.482 9.425-3.857C32.072 27.972 34 21.217 34 14.041c0-6.901-2.115-10.386-6.343-11.696-4.229-1.31-12.788 1.233-20.037 5.603-5.782 3.485-8.689 7.125-7.26 11.927 1.102 3.705 4.848 4.74 7.652 5.243Z"/><path fill="#fff" d="M54.701 26.977c.152.502.464.938.888 1.239.916.545 3.027.169 3.027.169v-9.536c0-4.648-3.947-6.89-7.676-6.844-2.027.025-4.458.033-5.97 1.333-.608.529-1.216 1.123-.766 2.333l.608.962c1.264-.723 3.935-1.371 5.743-1.297 1.572.066 3.867 1 3.867 3.01C50.535 16.695 43 18.469 43 23.213c0 3.013 3.068 5.523 7.17 5.523 1.236 0 3.542-.504 4.531-1.759Zm-7.766-3.892c.061-2.386 5.529-2.415 7.535-1.507v2.514c-1.572 1.651-7.595 1.915-7.535-1.007ZM62.97 29c4.232-2.365 4.584-5.065 4.8-7.86l.242-5.213h5.626v12.466h4.227V12.476h-11.34c-.708 0-1.387.286-1.887.795-.501.51-.783 1.2-.784 1.92l-.057 5.59c-.04 1.239-.08 2.514-1.017 3.901a6.506 6.506 0 0 1-1.719 1.651l.973 1.342c.51.706.92 1.308.92 1.308l.016.017Zm26.548-17a8.309 8.309 0 0 0-5.95 2.397 8.62 8.62 0 0 0-2.562 5.971c-.024 4.133 3.219 8.33 8.544 8.33 2.282 0 5.476-.825 7.413-2.926l-1.313-1.445a1.71 1.71 0 0 0-2.08-.223c-2.836 1.499-7.955.826-8.332-2.572l12.491-.09c.057-.735.081-.909.081-1.408 0-4.458-3.724-8.054-8.292-8.025v-.008Zm-4.28 6.738c.34-2.134 2.675-3.125 4.312-3.125 1.638 0 3.786.925 4.126 3.125h-8.438Zm45.536-6.262v6.121h-6.72v-6.121h-4.195v15.917h4.195v-6.122h6.72v6.122H135V12.476h-4.227Zm-22.474-.47c-2.027.024-4.459.032-5.971 1.332-.608.529-1.215 1.123-.766 2.333l.604.962c1.265-.723 3.94-1.371 5.743-1.297 1.573.066 3.871 1 3.871 3.01-3.887-1.651-11.425.123-11.425 4.867 0 3.013 3.068 5.523 7.169 5.523 1.237 0 3.543-.504 4.532-1.759.152.502.464.938.887 1.239.92.545 3.032.169 3.032.169v-9.536c0-4.648-3.948-6.89-7.676-6.844Zm3.509 12.086c-1.572 1.651-7.595 1.915-7.534-1.007.061-2.386 5.528-2.415 7.534-1.507v2.514Z"/><defs><linearGradient id="a" x1="30.428" x2="10.72" y1="4.621" y2="29.282" gradientUnits="userSpaceOnUse"><stop stop-color="#6CC8F1"/><stop offset=".297" stop-color="#5B8FF4"/><stop offset=".438" stop-color="#5673F6"/><stop offset=".599" stop-color="#5458F7"/><stop offset=".698" stop-color="#6455F5"/><stop offset="1" stop-color="#A668ED"/></linearGradient></defs></svg>