<svg xmlns="http://www.w3.org/2000/svg" fill="none" viewBox="0 0 56 56"><path fill="#fff" d="m34.763 22.98 8.746-2.343c2.411-.647 6.382-.33 7.008 2.004.625 2.334-2.654 4.594-5.065 5.24l-8.747 2.343-3.12 14.5a1.114 1.114 0 0 1-.295.498 1.16 1.16 0 0 1-.51.289l-3.274.877c-.725.194-1.428-.337-1.41-1.065l.62-11.261a1.25 1.25 0 0 0-1.571-1.276l-6.655 1.783-1.764 5.196a1.143 1.143 0 0 1-.76.657l-2.728.73c-.71.19-1.404-.315-1.41-1.029l.467-7.776L10 25.845c-.351-.62-.003-1.406.707-1.596l2.727-.73c.343-.093.71-.023.987.188l4.126 3.618 7.655-2.051a.5.5 0 0 0 .289-.757L19.758 14.21c-.38-.622-.037-1.434.688-1.628l3.274-.877a1.16 1.16 0 0 1 .586-.004c.192.049.366.146.505.282l9.952 10.998Z"/></svg>